# Blender v2.82 (sub 7) OBJ File: 'terrain.blend'
# www.blender.org
v -1.000000 0.000000 1.000000
v -0.777778 0.000000 1.000000
v -0.555556 0.000000 1.000000
v -0.333333 0.000023 1.000000
v -0.111102 0.001967 1.000000
v 0.111111 0.000000 1.000000
v 0.333325 -0.001967 1.000000
v 0.555556 -0.000023 1.000000
v 0.777778 0.000000 1.000000
v 1.000000 0.000000 1.000000
v -1.000000 0.000000 0.777778
v -0.777778 0.000000 0.777778
v -0.555550 0.002803 0.777778
v -0.332867 0.020956 0.777778
v -0.110116 0.022602 0.777778
v 0.111111 0.000582 0.777778
v 0.332338 -0.021012 0.777778
v 0.555089 -0.020350 0.777778
v 0.777772 -0.002803 0.777778
v 1.000000 0.000000 0.777778
v -1.000000 0.000000 0.555556
v -0.777778 0.000078 0.555556
v -0.554856 0.036981 0.555556
v -0.329063 0.078612 0.555556
v -0.105520 0.070514 0.555556
v 0.111111 0.017531 0.555556
v 0.327742 -0.044465 0.555556
v 0.551285 -0.062053 0.555556
v 0.777079 -0.030522 0.555556
v 1.000000 -0.000045 0.555556
v -1.000000 0.000000 0.333333
v -0.777743 0.013394 0.333333
v -0.552569 0.088407 0.333333
v -0.322150 0.148235 0.333333
v -0.098306 0.159990 0.333333
v 0.111111 0.067836 0.333333
v 0.320528 -0.073485 0.333333
v 0.544372 -0.123115 0.333333
v 0.774791 -0.066547 0.333333
v 0.999965 -0.007019 0.333333
v -1.000000 0.000239 0.111111
v -0.777674 0.021760 0.111111
v -0.551114 0.110255 0.111111
v -0.318429 0.225062 0.111111
v -0.094488 0.273232 0.111111
v 0.111111 0.129963 0.111111
v 0.316710 -0.110778 0.111111
v 0.540652 -0.192668 0.111111
v 0.773337 -0.098431 0.111111
v 0.999896 -0.004555 0.111111
v -1.000000 -0.028030 -0.111111
v -0.777743 -0.037504 -0.111111
v -0.552569 0.040612 -0.111111
v -0.322150 0.208544 -0.111111
v -0.098306 0.308212 -0.111111
v 0.111111 0.172515 -0.111111
v 0.320528 -0.099239 -0.111111
v 0.544372 -0.189412 -0.111111
v 0.774791 -0.079711 -0.111111
v 0.999965 0.014009 -0.111111
v -1.000000 -0.086696 -0.333333
v -0.777778 -0.134425 -0.333333
v -0.554856 -0.100061 -0.333333
v -0.329063 0.061105 -0.333333
v -0.105520 0.202595 -0.333333
v 0.111111 0.152117 -0.333333
v 0.327742 -0.015124 -0.333333
v 0.551285 -0.077255 -0.333333
v 0.777079 -0.001627 -0.333333
v 1.000000 0.031651 -0.333333
v -1.000000 -0.140460 -0.555556
v -0.777778 -0.213081 -0.555556
v -0.555550 -0.232689 -0.555556
v -0.332867 -0.131078 -0.555556
v -0.110116 0.019253 -0.555556
v 0.111111 0.082505 -0.555556
v 0.332338 0.063203 -0.555556
v 0.555089 0.044581 -0.555556
v 0.777772 0.056459 -0.555556
v 1.000000 0.025923 -0.555556
v -1.000000 -0.162266 -0.777778
v -0.777778 -0.243209 -0.777778
v -0.555556 -0.278589 -0.777778
v -0.333333 -0.227317 -0.777778
v -0.111102 -0.107298 -0.777778
v 0.111111 0.007671 -0.777778
v 0.333325 0.068056 -0.777778
v 0.555556 0.063747 -0.777778
v 0.777778 0.038563 -0.777778
v 1.000000 0.012335 -0.777778
v -1.000000 -0.140460 -1.000000
v -0.777778 -0.213144 -1.000000
v -0.555556 -0.243209 -1.000000
v -0.333333 -0.211831 -1.000000
v -0.111111 -0.127103 -1.000000
v 0.111111 -0.031626 -1.000000
v 0.333333 0.027204 -1.000000
v 0.555556 0.026476 -1.000000
v 0.777778 0.012519 -1.000000
v 1.000000 0.000994 -1.000000
vt 0.111111 0.000000
vt 0.000000 0.111111
vt 0.000000 0.000000
vt 0.222222 0.000000
vt 0.111111 0.111111
vt 0.333333 0.000000
vt 0.222222 0.111111
vt 0.444444 0.000000
vt 0.333333 0.111111
vt 0.555556 0.111111
vt 0.444444 0.111111
vt 0.555556 0.000000
vt 0.666667 0.111111
vt 0.666667 0.000000
vt 0.777778 0.111111
vt 0.777778 0.000000
vt 0.888889 0.111111
vt 0.888889 0.000000
vt 1.000000 0.111111
vt 0.000000 0.222222
vt 0.111111 0.222222
vt 0.222222 0.222222
vt 0.333333 0.222222
vt 0.555556 0.222222
vt 0.444444 0.222222
vt 0.666667 0.222222
vt 0.777778 0.222222
vt 0.888889 0.222222
vt 1.000000 0.222222
vt 0.000000 0.333333
vt 0.111111 0.333333
vt 0.222222 0.333333
vt 0.333333 0.333333
vt 0.555556 0.333333
vt 0.444444 0.333333
vt 0.666667 0.333333
vt 0.777778 0.333333
vt 0.888889 0.333333
vt 1.000000 0.333333
vt 0.000000 0.444444
vt 0.111111 0.444444
vt 0.222222 0.444444
vt 0.333333 0.444444
vt 0.555556 0.444444
vt 0.444444 0.444444
vt 0.666667 0.444444
vt 0.888889 0.444444
vt 0.777778 0.444444
vt 1.000000 0.444444
vt 0.111111 0.555556
vt 0.000000 0.555556
vt 0.222222 0.555556
vt 0.333333 0.555556
vt 0.444444 0.555556
vt 0.555556 0.555556
vt 0.666667 0.555556
vt 0.777778 0.555556
vt 0.888889 0.555556
vt 0.000000 0.666667
vt 0.222222 0.666667
vt 0.111111 0.666667
vt 0.333333 0.666667
vt 0.444444 0.666667
vt 0.666667 0.666667
vt 0.555556 0.666667
vt 0.777778 0.666667
vt 1.000000 0.555556
vt 0.888889 0.666667
vt 0.000000 0.777778
vt 0.222222 0.777778
vt 0.111111 0.777778
vt 0.333333 0.777778
vt 0.444444 0.777778
vt 0.555556 0.777778
vt 0.777778 0.777778
vt 0.666667 0.777778
vt 1.000000 0.666667
vt 0.888889 0.777778
vt 0.000000 0.888889
vt 0.111111 0.888889
vt 0.333333 0.888889
vt 0.222222 0.888889
vt 0.444444 0.888889
vt 0.555556 0.888889
vt 0.666667 0.888889
vt 0.777778 0.888889
vt 1.000000 0.777778
vt 0.888889 0.888889
vt 0.111111 1.000000
vt 0.000000 1.000000
vt 0.222222 1.000000
vt 0.444444 1.000000
vt 0.333333 1.000000
vt 0.555556 1.000000
vt 0.666667 1.000000
vt 0.777778 1.000000
vt 1.000000 0.888889
vt 0.888889 1.000000
vt 1.000000 0.000000
vt 1.000000 1.000000
vn 0.0000 1.0000 0.0000
vn -0.0001 0.9999 0.0126
vn -0.0087 0.9956 0.0938
vn 0.0986 0.9908 0.0924
vn 0.0971 0.9953 0.0026
vn -0.0030 0.9963 -0.0854
vn -0.0782 0.9928 -0.0906
vn -0.0126 0.9998 -0.0126
vn -0.0126 0.9999 0.0004
vn -0.0803 0.9852 0.1513
vn -0.0072 0.9680 0.2510
vn 0.2323 0.9498 0.2096
vn 0.2744 0.9588 0.0731
vn 0.0780 0.9913 -0.1062
vn -0.1360 0.9741 -0.1805
vn -0.1344 0.9834 -0.1222
vn -0.0004 1.0000 0.0000
vn -0.1630 0.9849 0.0590
vn -0.1769 0.9593 0.2202
vn 0.0345 0.9534 0.2998
vn 0.3763 0.8551 0.3565
vn 0.5498 0.8147 0.1844
vn 0.2145 0.9676 -0.1333
vn -0.2308 0.9400 -0.2511
vn -0.2526 0.9555 -0.1523
vn -0.0602 0.9982 0.0011
vn -0.3159 0.9481 0.0356
vn -0.2502 0.9637 0.0931
vn -0.0496 0.9442 0.3256
vn 0.5256 0.7543 0.3934
vn 0.7482 0.6390 0.1786
vn 0.2135 0.9629 -0.1653
vn -0.3611 0.8917 -0.2730
vn -0.3796 0.9161 -0.1290
vn 0.0423 0.9911 -0.1261
vn -0.3178 0.9162 -0.2442
vn -0.5715 0.7841 -0.2420
vn -0.4060 0.9118 -0.0610
vn 0.5397 0.8330 0.1218
vn 0.7867 0.6063 0.1161
vn 0.3429 0.9378 0.0546
vn -0.3754 0.9268 0.0073
vn -0.3817 0.9212 0.0751
vn 0.0412 0.9661 -0.2550
vn -0.1399 0.9076 -0.3958
vn -0.5177 0.7253 -0.4538
vn -0.4698 0.7423 -0.4779
vn 0.5020 0.7747 -0.3845
vn 0.6095 0.7895 -0.0725
vn 0.2509 0.9026 0.3498
vn -0.3931 0.8257 0.4045
vn -0.3659 0.8792 0.3052
vn 0.2044 0.9514 -0.2302
vn 0.0829 0.9394 -0.3325
vn -0.3650 0.7999 -0.4763
vn -0.4567 0.6767 -0.5774
vn -0.2160 0.7553 -0.6187
vn 0.5931 0.7683 -0.2407
vn 0.0786 0.9397 0.3328
vn -0.2824 0.8432 0.4575
vn -0.1430 0.9577 0.2499
vn 0.3093 0.9464 -0.0929
vn 0.0871 0.9872 -0.1338
vn -0.2204 0.9552 -0.1973
vn -0.4442 0.8225 -0.3553
vn -0.4104 0.7932 -0.4499
vn -0.2494 0.9178 -0.3091
vn 0.0833 0.9963 0.0221
vn -0.0531 0.9949 0.0857
vn 0.1357 0.9876 -0.0795
vn 0.3095 0.9463 0.0929
vn 0.1329 0.9822 0.1329
vn -0.2222 0.9629 0.1533
vn -0.3555 0.9324 0.0650
vn -0.3934 0.9157 -0.0816
vn -0.2523 0.9529 -0.1685
vn 0.0191 0.9833 -0.1808
vn 0.1111 0.9801 -0.1644
vn 0.1164 0.9864 -0.1156
vn -0.0126 0.9998 0.0126
vn -0.0809 0.9923 0.0933
vn -0.0074 0.9957 0.0924
vn 0.0089 1.0000 0.0026
vn 0.0088 0.9963 -0.0854
vn -0.0087 0.9958 -0.0911
vn -0.0001 0.9999 -0.0126
vn -0.0004 1.0000 0.0004
vn -0.1615 0.9755 0.1495
vn -0.1758 0.9536 0.2444
vn 0.0354 0.9768 0.2113
vn 0.0988 0.9922 0.0757
vn 0.0966 0.9896 -0.1064
vn -0.0029 0.9828 -0.1844
vn -0.0780 0.9893 -0.1232
vn -0.0126 0.9999 -0.0002
vn -0.0600 0.9964 0.0597
vn -0.3089 0.9273 0.2114
vn -0.2410 0.9282 0.2833
vn -0.0487 0.9271 0.3717
vn 0.2320 0.9487 0.2148
vn 0.2727 0.9528 -0.1333
vn 0.0756 0.9609 -0.2664
vn -0.1366 0.9781 -0.1572
vn -0.1354 0.9903 -0.0311
vn -0.0963 0.9947 0.0374
vn -0.3624 0.9278 0.0888
vn -0.4235 0.8583 0.2897
vn -0.1885 0.8763 0.4433
vn 0.3902 0.8867 0.2479
vn 0.5533 0.8199 -0.1471
vn 0.3290 0.8996 -0.2871
vn -0.2362 0.9621 -0.1365
vn -0.2556 0.9667 0.0108
vn -0.0931 0.9620 -0.2565
vn -0.3495 0.8947 -0.2781
vn -0.4417 0.8952 -0.0591
vn -0.2077 0.9657 0.1556
vn 0.5648 0.8105 0.1552
vn 0.7596 0.6487 0.0467
vn 0.3736 0.9274 0.0198
vn -0.4287 0.9005 0.0731
vn -0.3831 0.9205 0.0768
vn 0.1932 0.8993 -0.3923
vn -0.2817 0.8120 -0.5111
vn -0.5230 0.7176 -0.4599
vn -0.3749 0.8420 -0.3880
vn 0.2260 0.9700 -0.0890
vn 0.7672 0.5912 0.2487
vn 0.3369 0.8363 0.4326
vn -0.3016 0.9005 0.3133
vn -0.1472 0.9860 0.0783
vn 0.2944 0.9009 -0.3189
vn -0.1313 0.8514 -0.5078
vn -0.4773 0.6687 -0.5701
vn -0.4410 0.6968 -0.5657
vn 0.2171 0.9315 -0.2918
vn 0.0820 0.9394 0.3328
vn 0.2363 0.8503 0.4702
vn -0.0515 0.9662 0.2524
vn 0.1361 0.9904 -0.0255
vn 0.3395 0.9321 -0.1264
vn 0.1541 0.9676 -0.1999
vn -0.3863 0.8467 -0.3659
vn -0.5064 0.7503 -0.4250
vn -0.2615 0.9147 -0.3080
vn 0.0869 0.9960 0.0221
vn 0.0193 0.9961 0.0860
vn 0.1122 0.9905 -0.0798
vn 0.1170 0.9913 -0.0606
vn 0.3395 0.9321 0.1261
vn 0.1553 0.9756 0.1553
vn -0.1395 0.9878 0.0688
vn -0.4737 0.8772 -0.0782
vn -0.4540 0.8774 -0.1552
vn -0.2582 0.9502 -0.1747
vn 0.0032 0.9862 -0.1654
vn 0.0623 0.9913 -0.1162
vn 0.0517 0.9974 -0.0509
s off
f 2/1/1 11/2/1 1/3/1
f 3/4/1 12/5/1 2/1/1
f 4/6/2 13/7/2 3/4/2
f 5/8/3 14/9/3 4/6/3
f 5/8/4 16/10/4 15/11/4
f 6/12/5 17/13/5 16/10/5
f 7/14/6 18/15/6 17/13/6
f 8/16/7 19/17/7 18/15/7
f 9/18/8 20/19/8 19/17/8
f 12/5/1 21/20/1 11/2/1
f 13/7/9 22/21/9 12/5/9
f 14/9/10 23/22/10 13/7/10
f 15/11/11 24/23/11 14/9/11
f 15/11/12 26/24/12 25/25/12
f 16/10/13 27/26/13 26/24/13
f 17/13/14 28/27/14 27/26/14
f 18/15/15 29/28/15 28/27/15
f 19/17/16 30/29/16 29/28/16
f 22/21/17 31/30/17 21/20/17
f 23/22/18 32/31/18 22/21/18
f 24/23/19 33/32/19 23/22/19
f 25/25/20 34/33/20 24/23/20
f 25/25/21 36/34/21 35/35/21
f 26/24/22 37/36/22 36/34/22
f 27/26/23 38/37/23 37/36/23
f 28/27/24 39/38/24 38/37/24
f 29/28/25 40/39/25 39/38/25
f 32/31/26 41/40/26 31/30/26
f 33/32/27 42/41/27 32/31/27
f 34/33/28 43/42/28 33/32/28
f 35/35/29 44/43/29 34/33/29
f 35/35/30 46/44/30 45/45/30
f 36/34/31 47/46/31 46/44/31
f 38/37/32 47/46/32 37/36/32
f 38/37/33 49/47/33 48/48/33
f 39/38/34 50/49/34 49/47/34
f 41/40/35 52/50/35 51/51/35
f 42/41/36 53/52/36 52/50/36
f 43/42/37 54/53/37 53/52/37
f 44/43/38 55/54/38 54/53/38
f 45/45/39 56/55/39 55/54/39
f 46/44/40 57/56/40 56/55/40
f 48/48/41 57/56/41 47/46/41
f 49/47/42 58/57/42 48/48/42
f 50/49/43 59/58/43 49/47/43
f 52/50/44 61/59/44 51/51/44
f 52/50/45 63/60/45 62/61/45
f 53/52/46 64/62/46 63/60/46
f 54/53/47 65/63/47 64/62/47
f 56/55/48 65/63/48 55/54/48
f 56/55/49 67/64/49 66/65/49
f 57/56/50 68/66/50 67/64/50
f 59/58/51 68/66/51 58/57/51
f 60/67/52 69/68/52 59/58/52
f 62/61/53 71/69/53 61/59/53
f 62/61/54 73/70/54 72/71/54
f 63/60/55 74/72/55 73/70/55
f 64/62/56 75/73/56 74/72/56
f 65/63/57 76/74/57 75/73/57
f 67/64/58 76/74/58 66/65/58
f 67/64/59 78/75/59 77/76/59
f 69/68/60 78/75/60 68/66/60
f 70/77/61 79/78/61 69/68/61
f 72/71/62 81/79/62 71/69/62
f 73/70/63 82/80/63 72/71/63
f 73/70/64 84/81/64 83/82/64
f 74/72/65 85/83/65 84/81/65
f 75/73/66 86/84/66 85/83/66
f 76/74/67 87/85/67 86/84/67
f 78/75/68 87/85/68 77/76/68
f 79/78/69 88/86/69 78/75/69
f 80/87/70 89/88/70 79/78/70
f 81/79/71 92/89/71 91/90/71
f 82/80/72 93/91/72 92/89/72
f 84/81/73 93/91/73 83/82/73
f 84/81/74 95/92/74 94/93/74
f 85/83/75 96/94/75 95/92/75
f 86/84/76 97/95/76 96/94/76
f 88/86/77 97/95/77 87/85/77
f 89/88/78 98/96/78 88/86/78
f 90/97/79 99/98/79 89/88/79
f 2/1/1 12/5/1 11/2/1
f 3/4/80 13/7/80 12/5/80
f 4/6/81 14/9/81 13/7/81
f 5/8/82 15/11/82 14/9/82
f 5/8/83 6/12/83 16/10/83
f 6/12/84 7/14/84 17/13/84
f 7/14/85 8/16/85 18/15/85
f 8/16/86 9/18/86 19/17/86
f 9/18/1 10/99/1 20/19/1
f 12/5/87 22/21/87 21/20/87
f 13/7/88 23/22/88 22/21/88
f 14/9/89 24/23/89 23/22/89
f 15/11/90 25/25/90 24/23/90
f 15/11/91 16/10/91 26/24/91
f 16/10/92 17/13/92 27/26/92
f 17/13/93 18/15/93 28/27/93
f 18/15/94 19/17/94 29/28/94
f 19/17/95 20/19/95 30/29/95
f 22/21/96 32/31/96 31/30/96
f 23/22/97 33/32/97 32/31/97
f 24/23/98 34/33/98 33/32/98
f 25/25/99 35/35/99 34/33/99
f 25/25/100 26/24/100 36/34/100
f 26/24/101 27/26/101 37/36/101
f 27/26/102 28/27/102 38/37/102
f 28/27/103 29/28/103 39/38/103
f 29/28/104 30/29/104 40/39/104
f 32/31/105 42/41/105 41/40/105
f 33/32/106 43/42/106 42/41/106
f 34/33/107 44/43/107 43/42/107
f 35/35/108 45/45/108 44/43/108
f 35/35/109 36/34/109 46/44/109
f 36/34/110 37/36/110 47/46/110
f 38/37/111 48/48/111 47/46/111
f 38/37/112 39/38/112 49/47/112
f 39/38/113 40/39/113 50/49/113
f 41/40/114 42/41/114 52/50/114
f 42/41/115 43/42/115 53/52/115
f 43/42/116 44/43/116 54/53/116
f 44/43/117 45/45/117 55/54/117
f 45/45/118 46/44/118 56/55/118
f 46/44/119 47/46/119 57/56/119
f 48/48/120 58/57/120 57/56/120
f 49/47/121 59/58/121 58/57/121
f 50/49/122 60/67/122 59/58/122
f 52/50/123 62/61/123 61/59/123
f 52/50/124 53/52/124 63/60/124
f 53/52/125 54/53/125 64/62/125
f 54/53/126 55/54/126 65/63/126
f 56/55/127 66/65/127 65/63/127
f 56/55/128 57/56/128 67/64/128
f 57/56/129 58/57/129 68/66/129
f 59/58/130 69/68/130 68/66/130
f 60/67/131 70/77/131 69/68/131
f 62/61/132 72/71/132 71/69/132
f 62/61/133 63/60/133 73/70/133
f 63/60/134 64/62/134 74/72/134
f 64/62/135 65/63/135 75/73/135
f 65/63/136 66/65/136 76/74/136
f 67/64/137 77/76/137 76/74/137
f 67/64/138 68/66/138 78/75/138
f 69/68/139 79/78/139 78/75/139
f 70/77/140 80/87/140 79/78/140
f 72/71/141 82/80/141 81/79/141
f 73/70/142 83/82/142 82/80/142
f 73/70/143 74/72/143 84/81/143
f 74/72/144 75/73/144 85/83/144
f 75/73/145 76/74/145 86/84/145
f 76/74/146 77/76/146 87/85/146
f 78/75/147 88/86/147 87/85/147
f 79/78/148 89/88/148 88/86/148
f 80/87/149 90/97/149 89/88/149
f 81/79/150 82/80/150 92/89/150
f 82/80/151 83/82/151 93/91/151
f 84/81/152 94/93/152 93/91/152
f 84/81/153 85/83/153 95/92/153
f 85/83/154 86/84/154 96/94/154
f 86/84/155 87/85/155 97/95/155
f 88/86/156 98/96/156 97/95/156
f 89/88/157 99/98/157 98/96/157
f 90/97/158 100/100/158 99/98/158
